<?xml version="1.0" standalone="no"?>
<!DOCTYPE svg PUBLIC "-//W3C//DTD SVG 20010904//EN"
 "http://www.w3.org/TR/2001/REC-SVG-20010904/DTD/svg10.dtd">
<svg version="1.0" xmlns="http://www.w3.org/2000/svg"
 width="200.000000pt" height="200.000000pt" viewBox="0 0 200.000000 200.000000"
 preserveAspectRatio="xMidYMid meet">

<g transform="translate(0.000000,200.000000) scale(0.100000,-0.100000)"
fill="#000000" stroke="none">
<path d="M135 1985 c-49 -17 -111 -84 -125 -134 -14 -51 -14 -1653 1 -1704 14
-52 84 -122 134 -136 56 -15 1654 -15 1710 0 50 14 120 84 134 136 15 53 15
1653 0 1706 -14 52 -84 122 -134 136 -28 7 -294 11 -860 11 -677 -1 -827 -3
-860 -15z m555 -365 c21 -11 43 -28 49 -37 9 -17 11 -16 33 4 76 72 232 71
296 -1 41 -47 52 -108 52 -291 l0 -155 -54 0 -54 0 -3 164 c-4 148 -6 167 -25
193 -44 58 -146 53 -184 -10 -18 -28 -20 -51 -20 -189 l0 -158 -54 0 -55 0 -3
170 -3 170 -28 27 c-22 23 -36 28 -76 28 -35 0 -55 -6 -71 -20 -42 -37 -50
-75 -50 -230 l0 -145 -55 0 -55 0 0 245 0 245 55 0 55 0 0 -32 0 -32 28 27
c15 14 38 30 52 36 43 17 127 13 170 -9z m-130 -665 l0 -95 99 0 c112 0 101
-8 121 95 18 96 18 95 56 95 l34 0 0 -95 0 -94 123 -3 122 -3 3 -47 3 -47
-123 -3 -123 -3 -3 -192 -2 -193 -55 0 -55 0 -2 193 -3 192 -95 0 -95 0 -3
-193 -2 -192 -55 0 -55 0 -2 193 -3 192 -57 3 -58 3 0 49 0 50 58 0 58 0 18
95 18 95 39 0 39 0 0 -95z m962 -118 c25 -14 53 -37 62 -51 20 -31 46 -129 46
-173 l0 -33 -195 0 -195 0 0 -24 c0 -32 36 -75 76 -92 71 -30 173 -5 196 47
12 26 18 29 60 29 45 0 48 -2 48 -25 0 -54 -47 -112 -112 -140 -43 -17 -173
-20 -229 -5 -61 17 -102 52 -131 109 -24 46 -28 67 -28 136 0 69 4 90 28 135
46 92 109 122 243 117 71 -2 93 -7 131 -30z"/>
<path d="M1335 773 c-46 -13 -95 -66 -95 -103 0 -12 266 -15 274 -2 8 13 -22
70 -46 86 -26 17 -101 28 -133 19z"/>
</g>
</svg>
